PathFileType	4	(X/Y/Z)	/Users/itak/Documents/Research/Walk-IL/dataset/trc/00267_00010.trc
DataRate	CameraRate	NumFrames	NumMarkers	Units	OrigDataRate	OrigDataStartFrame	OrigNumFrames
100.000000	100.000000	4	54	mm	100.000000	363	415
Frame#	Time	RPSI			LPSI			L3			STRN			T10			C7			CLAV			RBAK			LBAK			LSHO			LUPA			LAEL			LAOL			LWTS			LWPS			LFRA			LIFD			LHPS			LHTS			RSHO			RUPA			RAEL			RAOL			RWTS			RWPS			RFRA			RIFD			RHTS			RHPS			RBHD			LFHD			RFHD			LBHD			LHIP			RHIP			RASI			LKNE			LTHI			LANK			LTIP			LTOE			LMT1			LMT5			LHEE			RKNE			RTHI			RANK			RTIP			RTOE			RMT1			RMT5			RHEE			LASI			*53			
		X1	Y1	Z1	X2	Y2	Z2	X3	Y3	Z3	X4	Y4	Z4	X5	Y5	Z5	X6	Y6	Z6	X7	Y7	Z7	X8	Y8	Z8	X9	Y9	Z9	X10	Y10	Z10	X11	Y11	Z11	X12	Y12	Z12	X13	Y13	Z13	X14	Y14	Z14	X15	Y15	Z15	X16	Y16	Z16	X17	Y17	Z17	X18	Y18	Z18	X19	Y19	Z19	X20	Y20	Z20	X21	Y21	Z21	X22	Y22	Z22	X23	Y23	Z23	X24	Y24	Z24	X25	Y25	Z25	X26	Y26	Z26	X27	Y27	Z27	X28	Y28	Z28	X29	Y29	Z29	X30	Y30	Z30	X31	Y31	Z31	X32	Y32	Z32	X33	Y33	Z33	X34	Y34	Z34	X35	Y35	Z35	X36	Y36	Z36	X37	Y37	Z37	X38	Y38	Z38	X39	Y39	Z39	X40	Y40	Z40	X41	Y41	Z41	X42	Y42	Z42	X43	Y43	Z43	X44	Y44	Z44	X45	Y45	Z45	X46	Y46	Z46	X47	Y47	Z47	X48	Y48	Z48	X49	Y49	Z49	X50	Y50	Z50	X51	Y51	Z51	X52	Y52	Z52	X53	Y53	Z53	X54	Y54	Z54	

364	3.63	-1341.869384765625	1015.263122558594	65.12614440917969	-1334.586059570312	1006.535888671875	-109.5810470581055	-1314.994140625	1082.594360351562	-23.86139297485352	-1059.047241210938	1246.311645507812	-1.766418933868408	-1327.26416015625	1194.066650390625	-21.11626815795898	-1270.896118164062	1437.060424804688	-26.42242431640625	-1117.836059570312	1349.471923828125	-7.456604957580566	-1331.3896484375	1298.934326171875	42.89706420898438	-1280.373046875	1402.530639648438	-133.6593322753906	-1184.139282226562	1405.481323242188	-176.9504089355469	-1204.390869140625	1289.416015625	-252.821044921875	-1202.3408203125	1088.243408203125	-273.4132080078125	-1278.534057617188	1075.703369140625	-232.1342926025391	-1116.314331054688	882.3359375	-208.2141418457031	-1135.299926757812	866.15771484375	-275.8517456054688	-1181.068115234375	988.0036010742188	-277.4658203125	-1090.248657226562	695.4591674804688	-206.5069274902344	-1121.734252929688	778.5928344726562	-270.9382019042969	-1077.2470703125	787.4990844726562	-222.3258819580078	-1218.192749023438	1410.50537109375	138.0114135742188	-1234.702392578125	1354.062866210938	205.1959381103516	-1289.07421875	1092.7861328125	240.9481811523438	-1316.097045898438	1090.223388671875	148.6613006591797	-1211.6484375	860.9144897460938	201.8008575439453	-1268.197875976562	861.1326904296875	265.3884887695312	-1278.6494140625	1022.458435058594	254.8170776367188	-1229.187255859375	676.1483154296875	200.3854217529297	-1200.092041015625	742.7361450195312	221.6778717041016	-1257.696044921875	748.4515991210938	263.7063598632812	-1248.1943359375	1595.491577148438	49.41266250610352	-1079.656494140625	1632.784301757812	-74.93833923339844	-1079.429931640625	1635.45556640625	18.04987144470215	-1247.37353515625	1581.53466796875	-96.743896484375	-1263.144775390625	955.877197265625	-201.5878448486328	-1246.870727539062	960.4833374023438	171.5183715820312	-1124.916259765625	957.8328247070312	105.5094528198242	-1196.82470703125	488.0162658691406	-184.8781890869141	-1206.605102539062	630.7704467773438	-202.5379791259766	-1339.231811523438	52.14230728149414	-177.3996734619141	-1274.523193359375	269.3095092773438	-192.2177581787109	-1136.415283203125	50.29422760009766	-110.9442596435547	-1205.009887695312	37.10484313964844	-73.23809814453125	-1215.424682617188	51.07632064819336	-184.6327514648438	-1387.315185546875	45.96251678466797	-121.3959274291992	-1232.234252929688	485.0724182128906	120.362663269043	-1192.681762695312	746.8193359375	161.7207641601562	-1292.947509765625	43.75708770751953	68.41646575927734	-1226.595825195312	364.4950866699219	99.26186370849609	-1097.36669921875	52.62327194213867	8.836734771728516	-1154.86083984375	50.38737869262695	-28.37881088256836	-1185.728759765625	39.82662200927734	85.83736419677734	-1346.341064453125	44.26782608032227	17.06263542175293	-1123.473510742188	961.7944946289062	-146.3411254882812	nan	nan	nan	
365	3.64	-1343.156982421875	1015.06396484375	64.34195709228516	-1336.245239257812	1005.944458007812	-110.3585739135742	-1316.679931640625	1082.275146484375	-24.96391677856445	-1060.920654296875	1246.235595703125	-3.998334407806396	-1328.882080078125	1193.735961914062	-22.36708831787109	-1272.843505859375	1436.812622070312	-28.04132080078125	-1119.682861328125	1349.345336914062	-9.42933177947998	-1333.17529296875	1298.705322265625	41.64325332641602	-1282.455688476562	1402.1826171875	-135.2681121826172	-1186.2744140625	1405.187377929688	-178.8074493408203	-1206.286010742188	1288.927856445312	-254.5529174804688	-1203.445190429688	1087.490844726562	-274.5334167480469	-1279.984741210938	1075.082153320312	-233.8267211914062	-1118.236694335938	881.7607421875	-207.4570007324219	-1136.493530273438	865.32763671875	-275.3247680664062	-1182.033569335938	987.1734619140625	-277.8670043945312	-1092.239624023438	694.8330688476562	-204.7839965820312	-1122.961303710938	777.7676391601562	-269.9306945800781	-1078.984252929688	786.8271484375	-220.7827301025391	-1219.654052734375	1410.305908203125	136.3194427490234	-1235.671264648438	1353.656494140625	203.5760803222656	-1287.558349609375	1091.887329101562	239.9318237304688	-1315.801147460938	1089.157348632812	148.0334014892578	-1207.347778320312	861.395263671875	199.4215850830078	-1262.982788085938	860.5805053710938	263.8218078613281	-1276.1240234375	1021.606750488281	253.5896606445312	-1221.7685546875	676.35009765625	198.0612030029297	-1193.552490234375	743.3243408203125	218.9792785644531	-1250.658203125	748.0693969726562	261.8577270507812	-1249.941040039062	1595.367553710938	47.90578079223633	-1081.39599609375	1632.5732421875	-76.38079071044922	-1081.205688476562	1635.13232421875	16.64450073242188	-1249.082397460938	1581.592651367188	-98.31652069091797	-1264.927124023438	955.134521484375	-202.3728637695312	-1247.819091796875	960.75244140625	170.3784942626953	-1125.927978515625	958.1235961914062	104.2303695678711	-1200.114868164062	487.5455017089844	-184.8850402832031	-1209.388305664062	630.2578125	-202.8139343261719	-1339.742309570312	51.25256729125977	-177.3029174804688	-1276.560546875	268.61279296875	-191.9693450927734	-1136.484375	49.51162719726562	-110.6799697875977	-1205.441040039062	36.57864761352539	-73.13051605224609	-1215.654663085938	50.8492317199707	-184.5042114257812	-1387.746704101562	44.58097076416016	-121.1654586791992	-1233.098999023438	485.2115783691406	119.7645797729492	-1193.399658203125	746.9827270507812	160.7880706787109	-1292.975708007812	43.75477600097656	68.38913726806641	-1227.386352539062	364.6816711425781	98.85380554199219	-1097.403442382812	52.78662109375	8.815459251403809	-1154.971435546875	50.48818969726562	-28.38638496398926	-1185.79248046875	39.9158821105957	85.79746246337891	-1346.399047851562	44.21540069580078	17.02456665039062	-1125.104370117188	961.2424926757812	-147.7676849365234	nan	nan	nan	
366	3.65	-1344.4052734375	1014.893188476562	63.53370666503906	-1337.834716796875	1005.426940917969	-111.1654205322266	-1318.301635742188	1081.982177734375	-26.08317947387695	-1062.76806640625	1246.193969726562	-6.236368656158447	-1330.45166015625	1193.416748046875	-23.64138221740723	-1274.767822265625	1436.58544921875	-29.67480850219727	-1121.511474609375	1349.265014648438	-11.42446136474609	-1334.903198242188	1298.464111328125	40.35820770263672	-1284.531982421875	1401.846069335938	-136.8945007324219	-1188.423461914062	1404.923583984375	-180.6966552734375	-1208.20947265625	1288.4873046875	-256.3412780761719	-1204.555908203125	1086.78515625	-275.7424621582031	-1281.417724609375	1074.49560546875	-235.5838165283203	-1120.241333007812	881.1355590820312	-206.8228759765625	-1137.794799804688	864.4931640625	-274.9358825683594	-1183.025634765625	986.3657836914062	-278.3831481933594	-1094.45263671875	694.1458129882812	-203.2124633789062	-1124.34033203125	776.91796875	-269.0668640136719	-1080.902221679688	786.087890625	-219.3837432861328	-1221.113525390625	1410.134155273438	134.6021881103516	-1236.630249023438	1353.28759765625	201.9250793457031	-1286.01806640625	1091.043090820312	238.9220123291016	-1315.411254882812	1088.098388671875	147.3971405029297	-1202.923583984375	862.0069580078125	197.1605682373047	-1257.71337890625	860.1716918945312	262.3160095214844	-1273.546142578125	1020.846984863281	252.3936004638672	-1214.071166992188	676.7509155273438	195.9183349609375	-1186.835571289062	744.1077880859375	216.4492340087891	-1243.475219726562	747.85546875	260.1170959472656	-1251.655639648438	1595.28662109375	46.39190292358398	-1083.066284179688	1632.387329101562	-77.82663726806641	-1082.934448242188	1634.815185546875	15.24268627166748	-1250.746826171875	1581.703857421875	-99.89248657226562	-1266.63427734375	954.4826049804688	-203.2016906738281	-1248.739624023438	961.0038452148438	169.2372436523438	-1126.914672851562	958.3963012695312	102.9476165771484	-1203.436157226562	487.1437072753906	-184.8370819091797	-1212.234375	629.8106689453125	-203.0867614746094	-1340.222778320312	50.48238372802734	-177.0746154785156	-1278.607421875	267.9713745117188	-191.6364288330078	-1136.50048828125	48.81605911254883	-110.4428558349609	-1205.799560546875	36.08810043334961	-73.03205871582031	-1215.871215820312	50.71847152709961	-184.3363647460938	-1388.145874023438	43.32968902587891	-120.7998504638672	-1234.033203125	485.3582763671875	119.1198883056641	-1194.1767578125	747.0784301757812	159.8063201904297	-1292.996215820312	43.75948333740234	68.35084533691406	-1228.248901367188	364.8882141113281	98.45101928710938	-1097.429565429688	52.96162414550781	8.795878410339355	-1155.0693359375	50.58205032348633	-28.39465522766113	-1185.855224609375	40.0107536315918	85.75224304199219	-1346.451171875	44.16947555541992	16.97675323486328	-1126.771850585938	960.6849365234375	-149.1660766601562	nan	nan	nan	
367	3.66	-1345.607543945312	1014.762512207031	62.71514892578125	-1339.3623046875	1005.005981445312	-111.9926223754883	-1319.851684570312	1081.729614257812	-27.20820617675781	-1064.565063476562	1246.194213867188	-8.460806846618652	-1331.971801757812	1193.118041992188	-24.92998504638672	-1276.667114257812	1436.388427734375	-31.31821060180664	-1123.31298828125	1349.239379882812	-13.4343204498291	-1336.56689453125	1298.222534179688	39.05102157592773	-1286.597412109375	1401.529663085938	-138.5345153808594	-1190.581787109375	1404.695434570312	-182.6094818115234	-1210.155395507812	1288.094482421875	-258.1688537597656	-1205.669189453125	1086.13427734375	-277.0169067382812	-1282.83056640625	1073.948486328125	-237.3769226074219	-1122.315551757812	880.4602661132812	-206.3249664306641	-1139.20068359375	863.6566772460938	-274.6878051757812	-1184.051635742188	985.5880126953125	-279.0058288574219	-1096.890380859375	693.399658203125	-201.8137359619141	-1125.86767578125	776.04345703125	-268.3488159179688	-1083.003540039062	785.2765502929688	-218.1493225097656	-1222.566284179688	1410.001831054688	132.8679809570312	-1237.575927734375	1352.97216796875	200.2508697509766	-1284.466796875	1090.270141601562	237.9194488525391	-1314.935546875	1087.07470703125	146.74853515625	-1198.4033203125	862.7658081054688	195.0258483886719	-1252.433959960938	859.9150390625	260.8670959472656	-1270.929809570312	1020.201049804688	251.2226257324219	-1206.142944335938	677.3613891601562	193.9434204101562	-1179.990844726562	745.1115112304688	214.0980224609375	-1236.1953125	747.8316650390625	258.4707946777344	-1253.336669921875	1595.255981445312	44.86659240722656	-1084.662963867188	1632.23681640625	-79.27073669433594	-1084.60595703125	1634.51513671875	13.84256839752197	-1252.361206054688	1581.875244140625	-101.4706115722656	-1268.280639648438	953.9432373046875	-204.0718994140625	-1249.629760742188	961.2362060546875	168.0991821289062	-1127.874389648438	958.6497192382812	101.664680480957	-1206.715698242188	486.8325805664062	-184.7450256347656	-1215.099609375	629.4500732421875	-203.3595123291016	-1340.65673828125	49.85806274414062	-176.7408447265625	-1280.600952148438	267.4116821289062	-191.2400512695312	-1136.4794921875	48.20663833618164	-110.2178421020508	-1206.074584960938	35.64707565307617	-72.92906951904297	-1216.055297851562	50.67333221435547	-184.1352691650391	-1388.5029296875	42.25166320800781	-120.3682022094727	-1235.045166015625	485.5060729980469	118.4338150024414	-1195.01318359375	747.0869140625	158.7734527587891	-1293.009765625	43.76974868774414	68.30289459228516	-1229.185913085938	365.1155090332031	98.05366516113281	-1097.447998046875	53.14922332763672	8.778444290161133	-1155.147583007812	50.66619873046875	-28.41253471374512	-1185.915405273438	40.10785675048828	85.69883728027344	-1346.498291015625	44.12734222412109	16.92077255249023	-1128.523193359375	960.1351318359375	-150.5179901123047	nan	nan	nan	
